<?xml version="1.0" encoding="utf-8"?>
<!-- Generator: Adobe Illustrator 16.0.3, SVG Export Plug-In . SVG Version: 6.00 Build 0)  -->
<!DOCTYPE svg PUBLIC "-//W3C//DTD SVG 1.1//EN" "http://www.w3.org/Graphics/SVG/1.1/DTD/svg11.dtd">
<svg version="1.1" id="Layer_1" xmlns="http://www.w3.org/2000/svg" xmlns:xlink="http://www.w3.org/1999/xlink" x="0px" y="0px"
	 width="612px" height="792px" viewBox="0 0 612 792" enable-background="new 0 0 612 792" xml:space="preserve">
<path fill-rule="evenodd" clip-rule="evenodd" fill="#FEFDC3" d="M273.199,373.855c-1.047-0.663-2.124-1.259-3.105-1.984
	c-2.296-1.695-3.52-4.099-4.309-6.773c-0.73-2.475-0.938-5.016-0.95-7.574c-0.014-2.643-0.015-5.289,0.088-7.929
	c0.242-6.244,2.766-11.417,7.531-15.458c3.082-2.615,6.762-4.033,10.679-4.654c3.304-0.524,6.673-0.839,10.017-0.875
	c10.116-0.11,20.232-0.042,30.35-0.033c0.629,0,1.262,0.06,1.887,0.147c2.283,0.322,3.578,1.725,3.672,4.053
	c0.074,1.836,0.078,3.677,0.076,5.516c-0.006,4.396,0.004,8.794-0.068,13.189c-0.045,2.677-1.26,3.968-3.91,4.368
	c-0.594,0.089-1.203,0.115-1.803,0.115c-6.842,0.008-13.682-0.009-20.521,0.02c-1.053,0.004-2.13,0.094-3.151,0.335
	c-1.623,0.383-2.574,1.584-2.691,3.257c-0.085,1.202-0.113,2.412-0.087,3.617c0.067,3.14,1.47,4.552,4.612,4.664
	c1.234,0.043,2.472,0,3.707,0.032c3.084,0.082,4.664,1.639,4.686,4.733c0.037,5.346,0.037,10.692,0.002,16.037
	c-0.021,3.123-1.512,4.667-4.65,4.737c-3.849,0.085-7.702,0.024-11.552,0.069c-1.114,0.014-2.238,0.104-3.338,0.282
	c-1.624,0.263-2.714,1.278-2.84,2.899c-0.162,2.083-0.239,4.197-0.067,6.274c0.198,2.386,1.233,3.282,3.615,3.649
	c0.508,0.079,1.029,0.11,1.543,0.11c6.898,0.007,13.795,0.006,20.692,0.004c0.488,0,0.979,0.001,1.465-0.032
	c2.781-0.192,4.223-1.596,4.471-4.382c0.08-0.915,0.123-1.835,0.125-2.754c0.021-6.552,0-13.104,0.053-19.657
	c0.023-2.764,1.455-4.195,4.23-4.42c0.801-0.065,1.605-0.104,2.408-0.104c8.738-0.007,17.475-0.008,26.213,0.001
	c0.773,0.001,1.553,0.049,2.318,0.151c2.139,0.285,3.434,1.667,3.611,3.843c0.074,0.916,0.119,1.836,0.121,2.754
	c0.012,4.569,0.012,9.139,0,13.708c-0.002,0.717-0.039,1.44-0.145,2.147c-0.352,2.354-1.799,3.607-4.322,3.711
	c-1.346,0.056-2.695,0.01-4.141,0.01c-0.023,0.403-0.055,0.735-0.059,1.066c-0.027,2.5,0.006,5.003-0.086,7.5
	c-0.199,5.461-1.674,10.524-5.018,14.924c-2.738,3.601-6.305,6.063-10.631,7.412c-3.484,1.087-7.059,1.524-10.697,1.524
	c-13.449-0.003-26.899-0.003-40.35-0.001c-4.835,0.001-9.562-0.604-14.035-2.56c-5.951-2.603-9.955-7.039-12.194-13.098
	c-1.25-3.381-1.632-6.911-1.629-10.488c0.004-4.512-0.08-9.029,0.1-13.533c0.227-5.673,1.926-10.824,6.115-14.911
	c3.074-3,6.721-4.842,10.987-5.431c0.256-0.035,0.509-0.087,0.763-0.137C273.059,373.915,273.129,373.88,273.199,373.855z"/>
<path fill-rule="evenodd" clip-rule="evenodd" fill="#FEFDC3" d="M272.199,376.855c-1.047-0.663-2.124-1.259-3.105-1.984
	c-2.296-1.695-3.52-4.099-4.309-6.773c-0.73-2.475-0.938-5.016-0.95-7.574c-0.014-2.643-0.015-5.289,0.088-7.929
	c0.242-6.244,2.766-11.417,7.531-15.458c3.082-2.615,6.762-4.033,10.679-4.654c3.304-0.524,6.673-0.839,10.017-0.875
	c10.116-0.11,20.232-0.042,30.35-0.033c0.629,0,1.262,0.06,1.887,0.147c2.283,0.322,3.578,1.725,3.672,4.053
	c0.074,1.836,0.078,3.677,0.076,5.516c-0.006,4.396,0.004,8.794-0.068,13.189c-0.045,2.677-1.26,3.968-3.91,4.368
	c-0.594,0.089-1.203,0.115-1.803,0.115c-6.842,0.008-13.682-0.009-20.521,0.02c-1.053,0.004-2.13,0.094-3.151,0.335
	c-1.623,0.383-2.574,1.584-2.691,3.257c-0.085,1.202-0.113,2.412-0.087,3.617c0.067,3.14,1.47,4.552,4.612,4.664
	c1.234,0.043,2.472,0,3.707,0.032c3.084,0.082,4.664,1.639,4.686,4.733c0.037,5.346,0.037,10.692,0.002,16.037
	c-0.021,3.123-1.512,4.667-4.65,4.737c-3.849,0.085-7.702,0.024-11.552,0.069c-1.114,0.014-2.238,0.104-3.338,0.282
	c-1.624,0.263-2.714,1.278-2.84,2.899c-0.162,2.083-0.239,4.197-0.067,6.274c0.198,2.386,1.233,3.282,3.615,3.649
	c0.508,0.079,1.029,0.11,1.543,0.11c6.898,0.007,13.795,0.006,20.692,0.004c0.488,0,0.979,0.001,1.465-0.032
	c2.781-0.192,4.223-1.596,4.471-4.382c0.08-0.915,0.123-1.835,0.125-2.754c0.021-6.552,0-13.104,0.053-19.657
	c0.023-2.764,1.455-4.195,4.23-4.42c0.801-0.065,1.605-0.104,2.408-0.104c8.738-0.007,17.475-0.008,26.213,0.001
	c0.773,0.001,1.553,0.049,2.318,0.151c2.139,0.285,3.434,1.667,3.611,3.843c0.074,0.916,0.119,1.836,0.121,2.754
	c0.012,4.569,0.012,9.139,0,13.708c-0.002,0.717-0.039,1.44-0.145,2.147c-0.352,2.354-1.799,3.607-4.322,3.711
	c-1.346,0.056-2.695,0.01-4.141,0.01c-0.023,0.403-0.055,0.735-0.059,1.066c-0.027,2.5,0.006,5.003-0.086,7.5
	c-0.199,5.461-1.674,10.524-5.018,14.924c-2.738,3.601-6.305,6.063-10.631,7.412c-3.484,1.087-7.059,1.524-10.697,1.524
	c-13.449-0.003-26.899-0.003-40.35-0.001c-4.835,0.001-9.562-0.604-14.035-2.56c-5.951-2.603-9.955-7.039-12.194-13.098
	c-1.25-3.381-1.632-6.911-1.629-10.488c0.004-4.512-0.08-9.029,0.1-13.533c0.227-5.673,1.926-10.824,6.115-14.911
	c3.074-3,6.721-4.842,10.987-5.431c0.256-0.035,0.509-0.087,0.763-0.137C272.059,376.915,272.129,376.88,272.199,376.855z"/>
<path fill-rule="evenodd" clip-rule="evenodd" fill="#FEFDC3" d="M271.199,379.855c-1.047-0.663-2.124-1.259-3.105-1.984
	c-2.296-1.695-3.52-4.099-4.309-6.773c-0.73-2.475-0.938-5.016-0.95-7.574c-0.014-2.643-0.015-5.289,0.088-7.929
	c0.242-6.244,2.766-11.417,7.531-15.458c3.082-2.615,6.762-4.033,10.679-4.654c3.304-0.524,6.673-0.839,10.017-0.875
	c10.116-0.11,20.232-0.042,30.35-0.033c0.629,0,1.262,0.06,1.887,0.147c2.283,0.322,3.578,1.725,3.672,4.053
	c0.074,1.836,0.078,3.677,0.076,5.516c-0.006,4.396,0.004,8.794-0.068,13.189c-0.045,2.677-1.26,3.968-3.91,4.368
	c-0.594,0.089-1.203,0.115-1.803,0.115c-6.842,0.008-13.682-0.009-20.521,0.02c-1.053,0.004-2.13,0.094-3.151,0.335
	c-1.623,0.383-2.574,1.584-2.691,3.257c-0.085,1.202-0.113,2.412-0.087,3.617c0.067,3.14,1.47,4.552,4.612,4.664
	c1.234,0.043,2.472,0,3.707,0.032c3.084,0.082,4.664,1.639,4.686,4.733c0.037,5.346,0.037,10.692,0.002,16.037
	c-0.021,3.123-1.512,4.667-4.65,4.737c-3.849,0.085-7.702,0.024-11.552,0.069c-1.114,0.014-2.238,0.104-3.338,0.282
	c-1.624,0.263-2.714,1.278-2.84,2.899c-0.162,2.083-0.239,4.197-0.067,6.274c0.198,2.386,1.233,3.282,3.615,3.649
	c0.508,0.079,1.029,0.11,1.543,0.11c6.898,0.007,13.795,0.006,20.692,0.004c0.488,0,0.979,0.001,1.465-0.032
	c2.781-0.192,4.223-1.596,4.471-4.382c0.08-0.915,0.123-1.835,0.125-2.754c0.021-6.552,0-13.104,0.053-19.657
	c0.023-2.764,1.455-4.195,4.23-4.42c0.801-0.065,1.605-0.104,2.408-0.104c8.738-0.007,17.475-0.008,26.213,0.001
	c0.773,0.001,1.553,0.049,2.318,0.151c2.139,0.285,3.434,1.667,3.611,3.843c0.074,0.916,0.119,1.836,0.121,2.754
	c0.012,4.569,0.012,9.139,0,13.708c-0.002,0.717-0.039,1.44-0.145,2.147c-0.352,2.354-1.799,3.607-4.322,3.711
	c-1.346,0.056-2.695,0.01-4.141,0.01c-0.023,0.403-0.055,0.735-0.059,1.066c-0.027,2.5,0.006,5.003-0.086,7.5
	c-0.199,5.461-1.674,10.524-5.018,14.924c-2.738,3.601-6.305,6.063-10.631,7.412c-3.484,1.087-7.059,1.524-10.697,1.524
	c-13.449-0.003-26.899-0.003-40.35-0.001c-4.835,0.001-9.562-0.604-14.035-2.56c-5.951-2.603-9.955-7.039-12.194-13.098
	c-1.25-3.381-1.632-6.911-1.629-10.488c0.004-4.512-0.08-9.029,0.1-13.533c0.227-5.673,1.926-10.824,6.115-14.911
	c3.074-3,6.721-4.842,10.987-5.431c0.256-0.035,0.509-0.087,0.763-0.137C271.059,379.915,271.129,379.88,271.199,379.855z"/>
<g>
	<g>
		<path fill="#FEFDC3" d="M192.475,441.648l3.067-1.885l1.056,1.717l-3.067,1.885c-2.897,1.612-4.493,4.791-2.495,8.042
			c1.923,3.128,5.197,3.229,8.202,1.382l2.331-1.434c2.331-1.432,2.153-4.197,2.008-7.319c-0.153-5.062-0.085-9.075,2.945-11.022
			l7.054-4.336c3.865-2.375,8.016-2.223,10.504,1.826c2.3,3.742,0.76,7.563-3.104,9.938l-4.232,2.602l-1.056-1.718l4.171-2.563
			c2.76-1.697,4.413-4.234,2.565-7.24c-1.508-2.453-4.258-3.214-7.754-1.064l-6.932,4.26c-2.501,1.707-2.285,4.533-2.193,8.533
			c0.153,3.962,0.293,7.764-2.774,9.648l-2.515,1.547c-3.803,2.338-8.176,2.236-10.815-2.059
			C187.142,448.646,188.205,444.188,192.475,441.648z"/>
		<path fill="#FEFDC3" d="M228.355,489.404l4.015-4.955l20.481-23.4l1.821,1.162l-12.552,28.375l-2.878,5.85l0.121,0.078
			l4.071-5.176l20.234-23.816l1.699,1.086l-26.421,30.971l-2.307-1.473l14.374-32.166l-23.114,26.59l-2.367-1.51l17.074-36.936
			l1.7,1.084l-13.209,28.469l-2.862,5.689L228.355,489.404z"/>
		<path fill="#FEFDC3" d="M289.414,476.916l-3.063,25.449l8.864,1.066l-0.224,1.859l-8.864-1.068l-1.076,8.938l11.152,1.342
			l-0.232,1.93l-13.154-1.582l4.811-39.963l13.153,1.584l-0.215,1.787L289.414,476.916z"/>
		<path fill="#FEFDC3" d="M326.47,475.777l6.655,24.756l8.621-2.318l0.486,1.807l-8.622,2.318l2.337,8.691l10.847-2.916l0.505,1.879
			l-12.795,3.439l-10.448-38.871l12.794-3.439l0.468,1.738L326.47,475.777z"/>
		<path fill="#FEFDC3" d="M367.725,455.283l-4.571,3.385l22.88,30.898l-1.504,1.113l-22.881-30.898l-4.57,3.387l-1.071-1.447
			l10.646-7.885L367.725,455.283z"/>
		<path fill="#FEFDC3" d="M409.493,454.656l-3.061-1.896l1.063-1.715l3.06,1.896c2.74,1.867,6.297,1.869,8.308-1.374
			c1.935-3.122,0.557-6.093-2.442-7.952l-2.325-1.441c-2.326-1.441-4.718-0.043-7.444,1.486c-4.456,2.405-8.075,4.145-11.173,2.309
			l-7.038-4.362c-3.856-2.39-5.58-6.169-3.076-10.208c2.313-3.734,6.419-4.07,10.274-1.68l4.224,2.617l-1.063,1.713l-4.162-2.579
			c-2.754-1.706-5.763-2.046-7.621,0.952c-1.518,2.448-0.965,5.248,2.523,7.41l6.916,4.286c2.646,1.471,5.076,0.011,8.61-1.864
			c3.474-1.914,6.81-3.742,9.869-1.846l2.51,1.555c3.795,2.352,5.664,6.307,3.009,10.59
			C418.14,456.287,413.678,457.334,409.493,454.656z"/>
	</g>
</g>
<g>
	<g>
		<path fill="#FEFDC3" d="M183.124,310.751l1.552-1.985l41.8,32.691l-1.552,1.985L209.78,331.6l-0.044,0.057l-0.069-0.146
			L183.124,310.751z M198.382,291.241l12.37,35.726l-25.012-19.562l1.553-1.985l18.263,14.283l-8.992-26.137L198.382,291.241z
			 M241.292,322.514l-32.061-5.056l-9.607-27.806l1.952-2.496l9.631,28.008l31.859,5.081L241.292,322.514z M227.541,340.097
			l-14.292-11.178l-3.334-9.646l30.135,4.83l-1.774,2.269l-24.581-3.868l1.729,4.918l13.669,10.69L227.541,340.097z"/>
		<path fill="#FEFDC3" d="M260.997,307.772l-23.886-47.39l2.25-1.134l23.886,47.39L260.997,307.772z M267.042,304.726l-2.25,1.134
			l-23.886-47.39l2.25-1.134L267.042,304.726z"/>
		<path fill="#FEFDC3" d="M310.959,280.252c0.461,9.708-3.587,15.523-12.72,15.957l-10.571,0.502l-0.12-2.517l10.571-0.502
			c3.668-0.174,6.349-1.383,8.185-3.705c1.624-2.239,2.336-5.445,2.137-9.616l-1.059-22.293c-0.397-8.342-4.133-12.633-11.54-12.281
			l-10.571,0.502l-0.123-2.589l10.571-0.502c4.531-0.215,8.051,1.059,10.489,3.826c2.205,2.417,3.461,6.106,3.69,10.924
			L310.959,280.252z M285.35,247.953l2.517-0.12l2.116,44.515l-2.517,0.12L285.35,247.953z M291.709,292.267l-2.116-44.515
			l6.328-0.301c3.236-0.154,5.654,0.668,7.106,2.401c1.596,1.726,2.448,4.497,2.629,8.308l1.06,22.293
			c0.181,3.812-0.404,6.65-1.829,8.52c-1.353,1.866-3.613,2.838-6.85,2.992L291.709,292.267z M292.233,250.221l1.873,39.41
			l3.812-0.181c1.726-0.082,3.374-0.305,4.541-1.513c1.096-1.206,1.856-3.404,1.668-7.359l-1.06-22.293
			c-0.188-3.956-1.153-6.072-2.359-7.167c-1.277-1.093-2.938-1.158-4.664-1.076L292.233,250.221z"/>
		<path fill="#FEFDC3" d="M359.746,294.698c-4.117,8.804-10.41,12.061-18.691,8.187l-9.588-4.484l1.068-2.283l9.586,4.484
			c3.326,1.556,6.262,1.736,8.969,0.539c2.48-1.225,4.605-3.728,6.374-7.511l9.456-20.217c3.538-7.565,2.233-13.103-4.484-16.245
			l-9.586-4.484l1.098-2.348l9.587,4.484c4.108,1.922,6.629,4.69,7.496,8.275c0.823,3.167,0.216,7.016-1.828,11.385L359.746,294.698
			z M352.148,254.185l2.282,1.067l-18.882,40.369l-2.281-1.067L352.148,254.185z M337.115,296.353l18.881-40.369l5.738,2.685
			c2.936,1.373,4.69,3.227,5.167,5.437c0.606,2.271,0.069,5.12-1.547,8.576l-9.456,20.217c-1.616,3.457-3.458,5.695-5.59,6.685
			c-2.067,1.021-4.52,0.827-7.455-0.545L337.115,296.353z M357.18,259.399l-16.715,35.738l3.457,1.617
			c1.564,0.732,3.125,1.303,4.723,0.778c1.531-0.556,3.229-2.146,4.906-5.733l9.456-20.217c1.677-3.587,1.81-5.91,1.255-7.441
			c-0.621-1.562-2.061-2.394-3.625-3.126L357.18,259.399z"/>
		<path fill="#FEFDC3" d="M396.767,331.24c-3.798,2.857-7.28,4.216-10.507,4.12c-1.224-0.07-2.693-0.227-4.278-1.016
			c-1.643-0.747-3.315-2.011-4.874-4.083c-3.116-4.143-3.007-7.83-2.362-10.207c0.802-3.126,3.073-6.096,6.87-8.953l18.299-13.766
			c3.74-2.813,7.223-4.172,10.507-4.12c2.462,0.04,5.978,0.999,9.095,5.142c3.116,4.143,3.064,7.787,2.42,10.164
			c-0.859,3.169-3.131,6.14-6.871,8.953L396.767,331.24z M413.55,315.46c6.502-4.892,7.935-10.294,3.951-15.588
			c-3.982-5.294-9.57-5.415-16.072-0.523l-18.298,13.766c-6.502,4.892-7.948,10.396-4.009,15.631
			c3.938,5.236,9.628,5.372,16.13,0.48L413.55,315.46z M394.213,327.845c-5.812,4.373-10.377,4.293-13.71-0.138
			c-3.334-4.431-2.145-8.839,3.667-13.211l18.298-13.766c2.992-2.251,5.611-3.321,7.858-3.209c2.16-0.003,4.105,1.146,5.794,3.39
			c1.688,2.244,2.254,4.433,1.651,6.507c-0.515,2.189-2.269,4.41-5.261,6.661L394.213,327.845z M410.996,312.065
			c3.279-2.467,4.443-4.514,4.513-6.098c0.069-1.583-0.84-2.792-1.402-3.54c-0.649-0.863-1.472-1.957-3.014-2.329
			c-1.541-0.373-3.83,0.178-7.11,2.645l-18.298,13.766c-3.395,2.554-4.443,4.514-4.513,6.099c-0.069,1.585,0.695,2.722,1.345,3.585
			c0.563,0.748,1.529,1.913,3.07,2.285c1.542,0.371,3.716-0.093,7.11-2.647L410.996,312.065z"/>
	</g>
</g>
<path fill-rule="evenodd" clip-rule="evenodd" fill="#FA6C22" d="M272.651,373.855c-1.047-0.663-2.124-1.259-3.105-1.984
	c-2.296-1.695-3.52-4.099-4.309-6.773c-0.73-2.475-0.938-5.016-0.95-7.574c-0.014-2.643-0.015-5.289,0.088-7.929
	c0.242-6.244,2.766-11.417,7.531-15.458c3.082-2.615,6.762-4.033,10.679-4.654c3.304-0.524,6.673-0.839,10.017-0.875
	c10.116-0.11,20.233-0.042,30.35-0.033c0.629,0,1.263,0.06,1.887,0.147c2.283,0.322,3.579,1.725,3.673,4.053
	c0.074,1.836,0.078,3.677,0.076,5.516c-0.006,4.396,0.004,8.794-0.069,13.189c-0.045,2.677-1.259,3.968-3.91,4.368
	c-0.594,0.089-1.202,0.115-1.803,0.115c-6.841,0.008-13.681-0.009-20.521,0.02c-1.053,0.004-2.13,0.094-3.151,0.335
	c-1.623,0.383-2.574,1.584-2.691,3.257c-0.085,1.202-0.113,2.412-0.087,3.617c0.067,3.14,1.47,4.552,4.612,4.664
	c1.234,0.043,2.472,0,3.707,0.032c3.085,0.082,4.665,1.639,4.687,4.733c0.036,5.346,0.037,10.692,0.001,16.037
	c-0.021,3.124-1.512,4.667-4.65,4.737c-3.849,0.085-7.702,0.024-11.552,0.07c-1.114,0.013-2.238,0.103-3.338,0.282
	c-1.624,0.263-2.714,1.278-2.84,2.899c-0.162,2.083-0.239,4.197-0.067,6.274c0.198,2.386,1.233,3.282,3.615,3.649
	c0.508,0.079,1.029,0.11,1.543,0.11c6.898,0.007,13.795,0.006,20.693,0.004c0.488,0,0.979,0.001,1.465-0.032
	c2.781-0.192,4.223-1.596,4.47-4.382c0.081-0.915,0.123-1.835,0.126-2.754c0.021-6.552,0-13.104,0.053-19.657
	c0.022-2.764,1.455-4.195,4.23-4.42c0.801-0.065,1.605-0.104,2.408-0.104c8.737-0.007,17.475-0.008,26.212,0.001
	c0.773,0.001,1.553,0.049,2.319,0.151c2.139,0.285,3.434,1.667,3.611,3.843c0.074,0.916,0.119,1.836,0.121,2.754
	c0.012,4.569,0.012,9.139-0.001,13.708c-0.001,0.717-0.039,1.44-0.145,2.147c-0.351,2.354-1.798,3.607-4.321,3.711
	c-1.346,0.056-2.696,0.01-4.142,0.01c-0.022,0.403-0.055,0.735-0.058,1.066c-0.028,2.5,0.005,5.003-0.086,7.5
	c-0.2,5.461-1.675,10.524-5.019,14.924c-2.738,3.601-6.304,6.063-10.631,7.412c-3.483,1.087-7.058,1.524-10.696,1.524
	c-13.45-0.003-26.9-0.003-40.351-0.001c-4.835,0.001-9.562-0.604-14.035-2.56c-5.951-2.603-9.955-7.039-12.194-13.098
	c-1.25-3.381-1.632-6.911-1.629-10.488c0.004-4.512-0.08-9.029,0.1-13.534c0.227-5.673,1.926-10.824,6.115-14.911
	c3.074-3,6.721-4.842,10.987-5.431c0.256-0.035,0.509-0.087,0.763-0.137C272.511,373.915,272.581,373.88,272.651,373.855z"/>
</svg>
