<?xml version="1.0" standalone="no"?>
<!DOCTYPE svg PUBLIC "-//W3C//DTD SVG 20010904//EN"
 "http://www.w3.org/TR/2001/REC-SVG-20010904/DTD/svg10.dtd">
<svg version="1.0" xmlns="http://www.w3.org/2000/svg"
 width="260.000000pt" height="260.000000pt" viewBox="0 0 260.000000 260.000000"
 preserveAspectRatio="xMidYMid meet">
<metadata>
Created by potrace 1.11, written by Peter Selinger 2001-2013
</metadata>
<g transform="translate(0.000000,260.000000) scale(0.100000,-0.100000)"
fill="#000000" stroke="none">
<path d="M0 1300 l0 -1300 1300 0 1300 0 0 1300 0 1300 -1300 0 -1300 0 0
-1300z m1782 1172 c22 -22 23 -29 26 -248 3 -223 3 -226 -24 -307 -15 -45 -38
-93 -51 -107 l-23 -25 -293 -5 -292 -5 2 -34 c2 -57 29 -73 133 -81 138 -10
134 -3 138 -255 l3 -204 -32 -96 c-22 -64 -39 -100 -53 -108 -13 -8 -90 -14
-206 -17 l-185 -5 -3 -34 c-10 -105 8 -111 332 -111 141 0 266 4 280 10 l26
10 0 226 c0 204 2 233 21 293 31 97 39 109 72 121 19 6 160 10 374 10 l345 0
29 -29 29 -29 0 -217 c0 -208 -1 -220 -26 -293 -31 -91 -60 -122 -112 -122
l-38 0 -11 -92 c-11 -96 -56 -243 -101 -337 -52 -105 -146 -187 -268 -233 -58
-22 -67 -23 -641 -26 -489 -2 -591 -1 -646 12 -189 44 -311 151 -374 327 -25
69 -27 88 -31 279 -2 122 0 234 7 276 14 90 61 237 96 303 27 50 93 118 145
152 l25 17 -22 45 c-35 72 -46 164 -40 326 5 133 8 156 42 256 42 126 75 184
145 249 81 76 162 107 335 129 17 3 213 4 437 3 l407 -1 23 -23z"/>
</g>
</svg>
